<svg viewBox="0 0 24 24" xmlns="http://www.w3.org/2000/svg"><path d="m17.381 18.056c-7.43.445-15.51 3.135-16.362 3.51l.989-2.789c2.521-1.166 8.775-3.469 16.486-4.019-.15.57-.961 2.671-1.125 3.285zm2.649-7.509s-.363.765-.709 1.814c-2.954.18-7.635 1.154-9.915 1.98 1.186-1.08 8.686-8.61 8.686-8.61 2.893 1.979 5.908 4.424 5.908 4.424l-3.97.395zm-17.55.33c1.647-.75 6.265-2.146 10.685-3.181 0 0-8.497 7.845-10.859 10.275l1.95-5.28c-1.516.225-2.184.315-4.256.75l2.479-2.551zm10.6-8.432c.734.359 3.45 2.205 4.419 2.888-3.096.074-9.135 1.409-11.652 2.25 2.065-1.568 5.903-4.53 7.233-5.148z"/></svg>